<svg width="31" height="31" viewBox="0 0 31 31" fill="none" xmlns="http://www.w3.org/2000/svg">
<path d="M8.66666 16.1667L12.8333 20.3333L22 10.3333M7.33333 28.6667H23.3333C25.2002 28.6667 26.1337 28.6667 26.8467 28.3033C27.4738 27.9838 27.9838 27.4738 28.3033 26.8467C28.6667 26.1337 28.6667 25.2002 28.6667 23.3333V7.33333C28.6667 5.4665 28.6667 4.53307 28.3033 3.82003C27.9838 3.19282 27.4738 2.68288 26.8467 2.36332C26.1337 2 25.2002 2 23.3333 2H7.33333C5.4665 2 4.53307 2 3.82003 2.36332C3.19282 2.68288 2.68288 3.19282 2.36332 3.82003C2 4.53307 2 5.46648 2 7.33333V23.3333C2 25.2002 2 26.1337 2.36332 26.8467C2.68288 27.4738 3.19282 27.9838 3.82003 28.3033C4.53307 28.6667 5.46648 28.6667 7.33333 28.6667Z" stroke="#EC5800" stroke-width="4" stroke-linecap="round" stroke-linejoin="round"/>
</svg>
