<svg width="61" height="66" viewBox="0 0 61 66" fill="none" xmlns="http://www.w3.org/2000/svg">
<path d="M29.806 3H13.7224C9.96923 3 8.09261 3 6.65909 3.72663C5.3981 4.36577 4.3729 5.38563 3.73043 6.64007C3 8.06613 3 9.933 3 13.6667V52.3333C3 56.067 3 57.934 3.73043 59.36C4.3729 60.6143 5.3981 61.6343 6.65909 62.2733C8.09261 63 9.96923 63 13.7224 63H19.7538M29.806 3L49.9105 23M29.806 3V17.6667C29.806 19.5335 29.806 20.4669 30.1713 21.18C30.4926 21.8072 31.0049 22.3171 31.6355 22.6367C32.3523 23 33.2905 23 35.1672 23H49.9105M49.9105 23V26.3333M16.403 49.6667H24.7799M16.403 36.3333H33.1568M16.403 23H19.7538M33.1568 63L39.942 61.65C40.5335 61.5323 40.8293 61.4733 41.1051 61.3657C41.35 61.2703 41.5829 61.1463 41.7984 60.9967C42.0416 60.828 42.2547 60.616 42.6816 60.1913L56.612 46.3333C58.4627 44.4923 58.4627 41.5077 56.612 39.6667C54.7614 37.8257 51.7612 37.8257 49.9105 39.6667L35.9801 53.5247C35.5532 53.9493 35.3401 54.1613 35.1706 54.4033C35.0201 54.6177 34.8955 54.8493 34.7996 55.093C34.6914 55.3673 34.6321 55.6617 34.5138 56.25L33.1568 63Z" stroke="#EC5800" stroke-width="6" stroke-linecap="round" stroke-linejoin="round"/>
</svg>
