<?xml version="1.0" encoding="UTF-8" standalone="no"?>
<!DOCTYPE svg PUBLIC "-//W3C//DTD SVG 1.1//EN" "http://www.w3.org/Graphics/SVG/1.1/DTD/svg11.dtd">
<svg width="100%" height="100%" viewBox="0 0 667 534" version="1.1" xmlns="http://www.w3.org/2000/svg" xmlns:xlink="http://www.w3.org/1999/xlink" xml:space="preserve" xmlns:serif="http://www.serif.com/" style="fill-rule:evenodd;clip-rule:evenodd;stroke-linecap:round;stroke-linejoin:round;">
    <g transform="matrix(1,0,0,1,-3.666667,-4.333333)">
        <g transform="matrix(33.333333,0,0,33.333333,-63,-129)">
            <path d="M21,12L9,12M21,6L9,6M21,18L9,18M5,12C5,12.552 4.552,13 4,13C3.448,13 3,12.552 3,12C3,11.448 3.448,11 4,11C4.552,11 5,11.448 5,12ZM5,6C5,6.552 4.552,7 4,7C3.448,7 3,6.552 3,6C3,5.448 3.448,5 4,5C4.552,5 5,5.448 5,6ZM5,18C5,18.552 4.552,19 4,19C3.448,19 3,18.552 3,18C3,17.448 3.448,17 4,17C4.552,17 5,17.448 5,18Z" style="fill:none;fill-rule:nonzero;stroke:white;stroke-width:2px;"/>
        </g>
    </g>
</svg>
