<svg width="382" height="382" viewBox="0 0 382 382" fill="none" xmlns="http://www.w3.org/2000/svg">
<path d="M113.014 268.894C108.154 264.034 108.154 256.154 113.014 251.294L148.213 216.095C153.073 211.235 160.953 211.235 165.813 216.095C170.673 220.955 170.673 228.835 165.813 233.695L130.614 268.894C125.754 273.753 117.875 273.753 113.014 268.894Z" fill="#C9D0D7"/>
<path d="M130.614 268.893L165.813 233.694C170.673 228.834 170.673 220.955 165.813 216.095L113.014 268.894C117.875 273.753 125.754 273.753 130.614 268.893Z" fill="#B8C2C9"/>
<path d="M10.9351 370.971C-3.64504 356.391 -3.64504 332.752 10.9351 318.172L63.7346 265.372L116.534 318.172L63.7346 370.971C49.1544 385.551 25.5152 385.551 10.9351 370.971Z" fill="#5A5A5A"/>
<path d="M10.9351 370.972C25.5152 385.553 49.1544 385.551 63.7345 370.972L116.534 318.172L90.1343 291.772L10.9351 370.972Z" fill="#474747"/>
<path d="M110.08 324.626L57.2803 271.827L95.4131 233.694C100.273 228.834 108.153 228.834 113.013 233.694L148.212 268.893C153.072 273.753 153.072 281.633 148.212 286.493L110.08 324.626Z" fill="#5A5A5A"/>
<path d="M148.214 268.893L130.614 251.293L83.6812 298.226L110.081 324.626L148.214 286.493C153.074 281.631 153.074 273.752 148.214 268.893Z" fill="#474747"/>
<path d="M245.106 273.788C169.626 273.788 108.211 212.378 108.211 136.894C108.211 61.4101 169.625 0 245.106 0C320.586 0 382 61.4109 382 136.895C382 212.378 320.585 273.788 245.106 273.788Z" fill="#5A5A5A"/>
<path d="M341.81 40.0986L148.308 233.599C173.1 258.414 207.341 273.789 245.104 273.789C320.584 273.789 381.999 212.378 381.999 136.894C381.999 99.1302 366.625 64.8898 341.81 40.0986Z" fill="#474747"/>
<path d="M245.106 24.8896C183.343 24.8896 133.101 75.136 133.101 136.895C133.101 198.653 183.342 248.899 245.106 248.899C306.869 248.899 357.11 198.652 357.11 136.895C357.11 75.1368 306.868 24.8896 245.106 24.8896Z" fill="#F2F8FF"/>
<path d="M324.22 57.6875L165.899 216.009C186.184 236.317 214.201 248.899 245.105 248.899C306.867 248.899 357.11 198.653 357.11 136.895C357.11 105.991 344.528 77.973 324.22 57.6875Z" fill="#E8EDF2"/>
<path d="M307.33 107.854V186.672C307.33 193.559 301.771 199.117 294.885 199.117H269.996V157.634C269.996 143.944 258.795 132.744 245.106 132.744C231.417 132.744 220.216 143.944 220.216 157.634V199.117H195.327C188.44 199.117 182.882 193.559 182.882 186.672V107.854H307.33Z" fill="#DBE9FD"/>
<path d="M245.105 132.744C231.416 132.744 220.215 143.944 220.215 157.634V199.117H245.105H269.995V157.634C269.995 143.945 258.794 132.744 245.105 132.744Z" fill="#5A5A5A"/>
<path d="M253.904 53.4255C251.474 50.9947 248.289 49.7793 245.106 49.7793C241.922 49.7793 238.737 50.9947 236.307 53.4255L182.881 107.855H245.106H307.331L253.904 53.4255Z" fill="#F57021"/>
<path d="M245.106 107.854H182.881V186.672C182.881 193.559 188.439 199.117 195.326 199.117H220.215V157.634C220.215 143.944 231.416 132.744 245.105 132.744C258.794 132.744 269.995 143.944 269.995 157.634V199.117H294.884C301.771 199.117 307.329 193.559 307.329 186.672V107.854H245.106Z" fill="#F0F0F0"/>
<path d="M307.33 107.855L253.904 53.4255C251.473 50.9947 248.289 49.7793 245.105 49.7793V107.856L307.33 107.855Z" fill="#EC5800"/>
<path d="M245.105 132.744C258.794 132.744 269.994 143.944 269.994 157.634V199.117H294.884C301.77 199.117 307.329 193.559 307.329 186.672V107.854H245.104V132.744H245.105Z" fill="#DBDBDB"/>
<path d="M269.995 157.636C269.995 143.946 258.794 132.746 245.105 132.746V199.119H269.995V157.636Z" fill="#474747"/>
</svg>
