<svg width="89" height="80" viewBox="0 0 89 80" fill="none" xmlns="http://www.w3.org/2000/svg">
<path d="M49 76V67C49 54.5737 38.9263 44.5 26.5 44.5C14.0736 44.5 4 54.5737 4 67V76H49ZM49 76H85V71.5C85 58.2453 74.9263 49 62.5 49C56.1401 49 50.3963 51.8147 46.304 56.3399M40 17.5C40 24.9558 33.9558 31 26.5 31C19.0442 31 13 24.9558 13 17.5C13 10.0442 19.0442 4 26.5 4C33.9558 4 40 10.0442 40 17.5ZM71.5 26.5C71.5 31.4707 67.4707 35.5 62.5 35.5C57.5293 35.5 53.5 31.4707 53.5 26.5C53.5 21.5294 57.5293 17.5 62.5 17.5C67.4707 17.5 71.5 21.5294 71.5 26.5Z" stroke="#EC5800" stroke-width="8" stroke-linecap="round" stroke-linejoin="round"/>
</svg>
