<svg width="100" height="79" viewBox="0 0 100 79" fill="none" xmlns="http://www.w3.org/2000/svg">
<path d="M8.62549 70.125L34.2505 39.375M90.6255 70.125L65.0005 39.375M3.50049 18.875L40.5286 43.5601C43.8163 45.752 45.4599 46.8483 47.2367 47.2736C48.807 47.6503 50.4439 47.6503 52.0142 47.2736C53.7911 46.8483 55.4347 45.752 58.7224 43.5601L95.7505 18.875M19.9005 75.25H79.3505C85.091 75.25 87.9615 75.25 90.154 74.1328C92.0825 73.1503 93.6508 71.582 94.6332 69.6535C95.7505 67.461 95.7505 64.5905 95.7505 58.85V19.9C95.7505 14.1595 95.7505 11.2892 94.6332 9.0966C93.6508 7.16791 92.0825 5.59987 90.154 4.6172C87.9615 3.5 85.091 3.5 79.3505 3.5H19.9005C14.16 3.5 11.2897 3.5 9.09709 4.6172C7.1684 5.59987 5.60035 7.16791 4.61769 9.0966C3.50049 11.2892 3.50049 14.1594 3.50049 19.9V58.85C3.50049 64.5905 3.50049 67.461 4.61769 69.6535C5.60035 71.582 7.1684 73.1503 9.09709 74.1328C11.2897 75.25 14.1599 75.25 19.9005 75.25Z" stroke="#F57021" stroke-width="7" stroke-linecap="round" stroke-linejoin="round"/>
</svg>
