<svg width="84" height="84" viewBox="0 0 84 84" fill="none" xmlns="http://www.w3.org/2000/svg">
<path d="M54.3333 33.3611V33.0116C54.3333 28.5716 50.7341 24.9722 46.2938 24.9722H37.5556C32.9225 24.9722 29.1667 28.7281 29.1667 33.3611C29.1667 37.9943 32.9225 41.75 37.5556 41.75H45.9444C50.5776 41.75 54.3333 45.5057 54.3333 50.1389C54.3333 54.7721 50.5776 58.5278 45.9444 58.5278H37.3806C32.8443 58.5278 29.1667 54.8501 29.1667 50.3138V50.1389M41.75 64.8194V18.6806M79.5 41.75C79.5 62.5989 62.5989 79.5 41.75 79.5C20.9013 79.5 4 62.5989 4 41.75C4 20.9013 20.9013 4 41.75 4C62.5989 4 79.5 20.9013 79.5 41.75Z" stroke="#EC5800" stroke-width="8" stroke-linecap="round" stroke-linejoin="round"/>
</svg>
