<svg width="362" height="362" viewBox="0 0 362 362" fill="none" xmlns="http://www.w3.org/2000/svg">
<path d="M0 0V305.365L40.1796 321.436L56.2517 361.616H245.797V0H0Z" fill="#D75414"/>
<path d="M205.617 319.427H153.865C150.536 319.427 147.838 316.729 147.838 313.401C147.838 310.073 150.537 307.374 153.865 307.374H205.617C208.946 307.374 211.644 310.073 211.644 313.401C211.644 316.729 208.946 319.427 205.617 319.427Z" fill="#EECBB6"/>
<path d="M205.617 62.278H40.1795C36.8508 62.278 34.1528 59.5793 34.1528 56.2513C34.1528 52.9226 36.8515 50.2246 40.1795 50.2246H205.617C208.946 50.2246 211.644 52.9233 211.644 56.2513C211.644 59.5793 208.946 62.278 205.617 62.278Z" fill="#EECBB6"/>
<path d="M205.617 94.4215H40.1795C36.8508 94.4215 34.1528 91.7228 34.1528 88.3949C34.1528 85.0669 36.8515 82.3682 40.1795 82.3682H205.617C208.946 82.3682 211.644 85.0669 211.644 88.3949C211.644 91.7228 208.946 94.4215 205.617 94.4215Z" fill="#EECBB6"/>
<path d="M205.617 126.565H40.1795C36.8508 126.565 34.1528 123.866 34.1528 120.538C34.1528 117.21 36.8515 114.512 40.1795 114.512H205.617C208.946 114.512 211.644 117.21 211.644 120.538C211.644 123.866 208.946 126.565 205.617 126.565Z" fill="#EECBB6"/>
<path d="M205.617 158.709H40.1795C36.8508 158.709 34.1528 156.01 34.1528 152.682C34.1528 149.354 36.8515 146.655 40.1795 146.655H205.617C208.946 146.655 211.644 149.354 211.644 152.682C211.644 156.01 208.946 158.709 205.617 158.709Z" fill="#EECBB6"/>
<path d="M205.617 190.852H40.1795C36.8508 190.852 34.1528 188.154 34.1528 184.826C34.1528 181.498 36.8515 178.799 40.1795 178.799H205.617C208.946 178.799 211.644 181.498 211.644 184.826C211.644 188.154 208.946 190.852 205.617 190.852Z" fill="#EECBB6"/>
<path d="M205.617 222.996H40.1795C36.8508 222.996 34.1528 220.297 34.1528 216.969C34.1528 213.641 36.8515 210.942 40.1795 210.942H205.617C208.946 210.942 211.644 213.641 211.644 216.969C211.644 220.297 208.946 222.996 205.617 222.996Z" fill="#EECBB6"/>
<path d="M336.52 120.769L332.542 94.0627L305.836 90.085L288.789 107.132L292.767 133.839L319.473 137.816L336.52 120.769Z" fill="#944013"/>
<path d="M131.155 289.767C129.586 291.336 129.586 293.881 131.155 295.449C132.724 297.019 135.268 297.018 136.837 295.449L161.872 280.709L165.248 261.356L145.895 264.732L131.155 289.767Z" fill="#463836"/>
<path d="M166.953 228.968L145.895 264.732L161.873 280.709L197.637 259.651L193.66 232.945L166.953 228.968Z" fill="#EE6B1D"/>
<path d="M355.271 102.018C363.73 93.5584 363.731 79.7937 355.271 71.3332C346.81 62.8726 333.045 62.874 324.586 71.3332L305.834 90.0849L336.519 120.769L355.271 102.018Z" fill="#C14813"/>
<path d="M197.637 259.649L319.468 137.818L288.785 107.135L166.954 228.966L197.637 259.649Z" fill="#B34916"/>
<path d="M0 305.364L56.2517 361.615V305.364H0Z" fill="#B24813"/>
</svg>
