<svg width="63" height="63" viewBox="0 0 63 63" fill="none" xmlns="http://www.w3.org/2000/svg">
<path d="M40.8338 22.1667H40.8649M40.8338 40.8333C51.1431 40.8333 59.5005 32.476 59.5005 22.1667C59.5005 11.8573 51.1431 3.5 40.8338 3.5C30.5245 3.5 22.1672 11.8573 22.1672 22.1667C22.1672 23.0181 22.2242 23.8562 22.3346 24.6775C22.5162 26.0282 22.6069 26.7036 22.5458 27.1308C22.4822 27.576 22.4011 27.8155 22.1817 28.2081C21.9712 28.5849 21.6 28.956 20.8578 29.6984L4.95845 45.5977C4.42038 46.1356 4.15133 46.4047 3.95894 46.7186C3.78836 46.9971 3.66267 47.3004 3.58645 47.618C3.50049 47.9761 3.50049 48.3566 3.50049 49.1173V54.5222C3.50049 56.2648 3.50049 57.1359 3.83957 57.8013C4.13786 58.3868 4.6138 58.8625 5.19919 59.1609C5.86468 59.5 6.73589 59.5 8.47827 59.5H13.8831C14.644 59.5 15.0245 59.5 15.3825 59.4141C15.7 59.3379 16.0035 59.2122 16.2818 59.0414C16.5958 58.8492 16.8648 58.58 17.4029 58.0421L33.3021 42.1428C34.0444 41.4005 34.4156 41.0293 34.7924 40.8187C35.185 40.5994 35.4245 40.5182 35.8697 40.4547C36.2969 40.3934 36.9723 40.4843 38.3232 40.666C39.1442 40.7764 39.9823 40.8333 40.8338 40.8333Z" stroke="#333333" stroke-width="7" stroke-linecap="round" stroke-linejoin="round"/>
</svg>
