<svg width="67" height="67" viewBox="0 0 67 67" fill="none" xmlns="http://www.w3.org/2000/svg">
<path d="M20.1667 3.5V4.8889M4.8889 20.1667H3.5M9.05557 9.05557L7.66667 7.66667M31.2777 9.05557L32.6667 7.66667M9.05557 31.2777L7.66667 32.6667M25.9415 16.8333C24.7888 14.8407 22.6343 13.5 20.1667 13.5C16.4848 13.5 13.5 16.4848 13.5 20.1667C13.5 22.6343 14.8407 24.7888 16.8333 25.9415M13.5 43.5L34.861 23.5631C36.143 22.3665 36.784 21.7682 37.5137 21.5422C38.1563 21.3432 38.8437 21.3432 39.4863 21.5422C40.216 21.7682 40.857 22.3665 42.139 23.5631L63.5 43.5M20.1667 37.2777V58.1667C20.1667 60.0337 20.1667 60.967 20.53 61.68C20.8496 62.3073 21.3595 62.817 21.9867 63.1367C22.6997 63.5 23.6332 63.5 25.5 63.5H51.5C53.367 63.5 54.3003 63.5 55.0133 63.1367C55.6407 62.817 56.1503 62.3073 56.47 61.68C56.8333 60.967 56.8333 60.0337 56.8333 58.1667V37.2777" stroke="#333333" stroke-width="7" stroke-linecap="round" stroke-linejoin="round"/>
</svg>
