<svg width="45" height="65" viewBox="0 0 45 65" fill="none" xmlns="http://www.w3.org/2000/svg">
<path d="M41.7857 61.75V65C43.5609 65 45 63.545 45 61.75H41.7857ZM3.2143 61.75H1.63892e-05C1.63892e-05 63.545 1.43912 65 3.2143 65V61.75ZM12.8572 13C11.082 13 9.64287 14.4551 9.64287 16.25C9.64287 18.0449 11.082 19.5 12.8572 19.5V13ZM16.0714 19.5C17.8467 19.5 19.2857 18.0449 19.2857 16.25C19.2857 14.4551 17.8467 13 16.0714 13V19.5ZM12.8572 22.75C11.082 22.75 9.64287 24.2051 9.64287 26C9.64287 27.795 11.082 29.25 12.8572 29.25V22.75ZM16.0714 29.25C17.8467 29.25 19.2857 27.795 19.2857 26C19.2857 24.2051 17.8467 22.75 16.0714 22.75V29.25ZM28.9286 22.75C27.1533 22.75 25.7143 24.2051 25.7143 26C25.7143 27.795 27.1533 29.25 28.9286 29.25V22.75ZM32.1428 29.25C33.9181 29.25 35.3571 27.795 35.3571 26C35.3571 24.2051 33.9181 22.75 32.1428 22.75V29.25ZM28.9286 32.5C27.1533 32.5 25.7143 33.955 25.7143 35.75C25.7143 37.545 27.1533 39 28.9286 39V32.5ZM32.1428 39C33.9181 39 35.3571 37.545 35.3571 35.75C35.3571 33.955 33.9181 32.5 32.1428 32.5V39ZM12.8572 32.5C11.082 32.5 9.64287 33.955 9.64287 35.75C9.64287 37.545 11.082 39 12.8572 39V32.5ZM16.0714 39C17.8467 39 19.2857 37.545 19.2857 35.75C19.2857 33.955 17.8467 32.5 16.0714 32.5V39ZM28.9286 13C27.1533 13 25.7143 14.4551 25.7143 16.25C25.7143 18.0449 27.1533 19.5 28.9286 19.5V13ZM32.1428 19.5C33.9181 19.5 35.3571 18.0449 35.3571 16.25C35.3571 14.4551 33.9181 13 32.1428 13V19.5ZM8.35715 6.50001H36.6428V1.65856e-05H8.35715V6.50001ZM38.5714 8.45001V61.75H45V8.45001H38.5714ZM41.7857 58.5H3.2143V65H41.7857V58.5ZM6.42858 61.75V8.45001H1.63892e-05V61.75H6.42858ZM36.6428 6.50001C37.5959 6.50001 38.1176 6.50255 38.4923 6.53349C38.8295 6.56134 38.7562 6.59524 38.5714 6.50001L41.49 0.708484C40.6176 0.259009 39.7504 0.115781 39.0156 0.0551037C38.3185 -0.00251876 37.4898 1.65856e-05 36.6428 1.65856e-05V6.50001ZM45 8.45001C45 7.59354 45.0026 6.75576 44.9457 6.05077C44.8856 5.30785 44.7438 4.4312 44.2993 3.54908L38.5714 6.50001C38.4772 6.31311 38.5107 6.2391 38.5383 6.58006C38.5688 6.95898 38.5714 7.48629 38.5714 8.45001H45ZM38.5714 6.50001L44.2993 3.54908C43.6831 2.32604 42.6995 1.33164 41.49 0.708484L38.5714 6.50001ZM8.35715 1.65856e-05C7.51009 1.65856e-05 6.68152 -0.00251876 5.98427 0.0551037C5.24952 0.115781 4.3825 0.259009 3.51008 0.708484L6.42858 6.50001C6.24373 6.59524 6.17054 6.56134 6.50775 6.53349C6.8825 6.50255 7.40402 6.50001 8.35715 6.50001V1.65856e-05ZM6.42858 8.45001C6.42858 7.48629 6.43109 6.95898 6.46169 6.58006C6.48924 6.2391 6.52276 6.31311 6.42858 6.50001L0.700698 3.54908C0.256162 4.4312 0.11451 5.30785 0.0544989 6.05077C-0.00249033 6.75576 1.63892e-05 7.59354 1.63892e-05 8.45001H6.42858ZM3.51008 0.708484C2.30045 1.33164 1.317 2.32601 0.700698 3.54908L6.42858 6.50001L3.51008 0.708484ZM12.8572 19.5H16.0714V13H12.8572V19.5ZM12.8572 29.25H16.0714V22.75H12.8572V29.25ZM28.9286 29.25H32.1428V22.75H28.9286V29.25ZM28.9286 39H32.1428V32.5H28.9286V39ZM12.8572 39H16.0714V32.5H12.8572V39ZM28.9286 19.5H32.1428V13H28.9286V19.5ZM25.7143 52V61.75H32.1428V52H25.7143ZM19.2857 61.75V52H12.8572V61.75H19.2857ZM22.5 48.75C24.2752 48.75 25.7143 50.205 25.7143 52H32.1428C32.1428 46.6151 27.8257 42.25 22.5 42.25V48.75ZM22.5 42.25C17.1743 42.25 12.8572 46.6151 12.8572 52H19.2857C19.2857 50.205 20.7248 48.75 22.5 48.75V42.25Z" fill="#333333"/>
</svg>
